<?xml version="1.0" encoding="utf-8"?>
<!-- Generator: Adobe Illustrator 16.0.0, SVG Export Plug-In . SVG Version: 6.00 Build 0)  -->
<!DOCTYPE svg PUBLIC "-//W3C//DTD SVG 1.1//EN" "http://www.w3.org/Graphics/SVG/1.1/DTD/svg11.dtd">
<svg version="1.1"
	 id="svg2" xmlns:cc="http://creativecommons.org/ns#" xmlns:dc="http://purl.org/dc/elements/1.1/" xmlns:inkscape="http://www.inkscape.org/namespaces/inkscape" xmlns:rdf="http://www.w3.org/1999/02/22-rdf-syntax-ns#" xmlns:sodipodi="http://sodipodi.sourceforge.net/DTD/sodipodi-0.dtd" xmlns:svg="http://www.w3.org/2000/svg"
	 xmlns="http://www.w3.org/2000/svg" xmlns:xlink="http://www.w3.org/1999/xlink" x="0px" y="0px" width="500px" height="500px"
	 viewBox="0 0 500 500" enable-background="new 0 0 500 500" xml:space="preserve">
<path d="M252.261,4.022C116.845,4.022,6.673,114.195,6.673,249.61c0,135.415,110.173,245.589,245.588,245.589
	c135.415,0,245.589-110.174,245.589-245.589C497.85,114.195,387.676,4.022,252.261,4.022z M252.261,443.515
	c-106.905,0-193.904-86.998-193.904-193.904c0-106.905,87-193.89,193.904-193.89c106.906,0,193.904,86.984,193.904,193.89
	C446.165,356.517,359.167,443.515,252.261,443.515z M384.109,242.026h-95.933c-3.477-5.681-8.274-10.463-13.94-13.956v-115.3
	c0-12.126-9.834-21.96-21.975-21.96c-12.142,0-21.974,9.834-21.974,21.96v115.3c-12.082,7.42-20.176,20.745-20.176,35.929
	c0,23.233,18.917,42.122,42.15,42.122c15.169,0,28.511-8.065,35.915-20.147h95.933c12.112,0,21.944-9.833,21.944-21.975
	C406.053,251.859,396.221,242.026,384.109,242.026z"/>
</svg>
