<?xml version="1.0" encoding="utf-8"?>
<!-- Generator: Adobe Illustrator 16.0.0, SVG Export Plug-In . SVG Version: 6.00 Build 0)  -->
<!DOCTYPE svg PUBLIC "-//W3C//DTD SVG 1.1//EN" "http://www.w3.org/Graphics/SVG/1.1/DTD/svg11.dtd">
<svg version="1.1"
	 id="svg2" xmlns:cc="http://creativecommons.org/ns#" xmlns:dc="http://purl.org/dc/elements/1.1/" xmlns:inkscape="http://www.inkscape.org/namespaces/inkscape" xmlns:rdf="http://www.w3.org/1999/02/22-rdf-syntax-ns#" xmlns:sodipodi="http://sodipodi.sourceforge.net/DTD/sodipodi-0.dtd" xmlns:svg="http://www.w3.org/2000/svg"
	 xmlns="http://www.w3.org/2000/svg" xmlns:xlink="http://www.w3.org/1999/xlink" x="0px" y="0px" width="500px" height="500px"
	 viewBox="0 0 500 500" enable-background="new 0 0 500 500" xml:space="preserve">
<path d="M457.825,42.145L45.387,454.643 M47.509,456.764L459.947,44.266c1.172-1.171,1.172-3.071,0-4.243
	c-1.172-1.171-3.072-1.171-4.242,0L43.266,452.521c-1.171,1.172-1.171,3.071,0,4.242c0.586,0.586,1.354,0.879,2.121,0.879
	S46.923,457.35,47.509,456.764z M45.387,42.145l412.438,412.498 M459.947,456.764c1.172-1.171,1.172-3.07,0-4.242L47.509,40.023
	c-1.171-1.171-3.071-1.172-4.243,0c-1.172,1.171-1.172,3.071,0,4.243l412.438,412.498c0.585,0.586,1.354,0.879,2.121,0.879
	S459.361,457.35,459.947,456.764z"/>
</svg>
