<?xml version="1.0" encoding="utf-8"?>
<!-- Generator: Adobe Illustrator 16.0.0, SVG Export Plug-In . SVG Version: 6.00 Build 0)  -->
<!DOCTYPE svg PUBLIC "-//W3C//DTD SVG 1.1//EN" "http://www.w3.org/Graphics/SVG/1.1/DTD/svg11.dtd">
<svg version="1.1"
	 id="svg2" xmlns:cc="http://creativecommons.org/ns#" xmlns:dc="http://purl.org/dc/elements/1.1/" xmlns:inkscape="http://www.inkscape.org/namespaces/inkscape" xmlns:rdf="http://www.w3.org/1999/02/22-rdf-syntax-ns#" xmlns:sodipodi="http://sodipodi.sourceforge.net/DTD/sodipodi-0.dtd" xmlns:svg="http://www.w3.org/2000/svg"
	 xmlns="http://www.w3.org/2000/svg" xmlns:xlink="http://www.w3.org/1999/xlink" x="0px" y="0px" width="500px" height="500px"
	 viewBox="0 0 500 500" enable-background="new 0 0 500 500" xml:space="preserve">
<path d="M252.261,4.022C116.845,4.022,6.673,114.195,6.673,249.61c0,135.415,110.173,245.589,245.588,245.589
	c135.415,0,245.589-110.174,245.589-245.589C497.85,114.195,387.676,4.022,252.261,4.022z M252.261,443.515
	c-106.905,0-193.904-86.998-193.904-193.904c0-106.905,87-193.89,193.904-193.89c106.906,0,193.904,86.984,193.904,193.89
	C446.165,356.517,359.167,443.515,252.261,443.515z M263.802,227.055c-16.138-7.833-32.042-11.751-32.042-24.599
	c0-11.517,6.738-14.962,17.47-14.962c7.599,0,14.18,2.82,20.291,7.599c4.621,3.917,9.948,6.503,16.373,6.503
	c11.984,0,20.681-11.281,20.681-22.014c0-8.068-4.152-14.962-11.752-20.29c-6.503-4.935-13.709-8.696-21.151-11.281v-10.262
	c0-9.949-8.068-18.018-18.019-18.018h-13.083c-9.948,0-18.018,8.069-18.018,18.018v11.281c-22.875,9.635-36.82,32.197-36.82,54.368
	c0,35.253,31.335,50.215,57.658,62.438c20.918,9.637,27.889,15.669,27.889,24.6c0,14.962-12.456,22.404-26.949,22.404
	c-8.303,0-15.902-0.939-25.068-7.598c-4.622-3.919-10.028-7.131-16.531-7.131c-11.984,0-20.681,11.283-20.681,22.016
	c0,7.832,3.917,14.179,11.125,19.74c7.99,6.11,20.055,11.359,29.377,13.867v7.832c0,9.949,8.068,18.02,18.018,18.02h13.083
	c9.95,0,18.019-8.07,18.019-18.02v-9.322c26.322-8.853,44.341-30.943,44.341-63.142
	C317.934,256.824,295.529,242.489,263.802,227.055z"/>
</svg>
