<?xml version="1.0" encoding="utf-8"?>
<!-- Generator: Adobe Illustrator 16.0.0, SVG Export Plug-In . SVG Version: 6.00 Build 0)  -->
<!DOCTYPE svg PUBLIC "-//W3C//DTD SVG 1.1//EN" "http://www.w3.org/Graphics/SVG/1.1/DTD/svg11.dtd">
<svg version="1.1"
	 id="svg2" xmlns:cc="http://creativecommons.org/ns#" xmlns:dc="http://purl.org/dc/elements/1.1/" xmlns:inkscape="http://www.inkscape.org/namespaces/inkscape" xmlns:rdf="http://www.w3.org/1999/02/22-rdf-syntax-ns#" xmlns:sodipodi="http://sodipodi.sourceforge.net/DTD/sodipodi-0.dtd" xmlns:svg="http://www.w3.org/2000/svg"
	 xmlns="http://www.w3.org/2000/svg" xmlns:xlink="http://www.w3.org/1999/xlink" x="0px" y="0px" width="500px" height="500px"
	 viewBox="0 0 500 500" enable-background="new 0 0 500 500" xml:space="preserve">
<g>
	<g>
		<path fill-rule="evenodd" clip-rule="evenodd" d="M399.015,342.943C430.744,306.911,450,259.629,450,207.843
			C450,94.908,358.448,3.357,245.5,3.357S41,94.908,41,207.843c0,59.463,25.383,112.99,65.895,150.359L245.5,500l138.551-141.747
			C389.301,353.414,394.295,348.303,399.015,342.943L399.015,342.943L399.015,342.943z"/>
	</g>
</g>
<path fill="#FFFFFF" d="M360.518,110.757l-0.382-0.896c-3.11-7.243-11.533-10.606-18.781-7.496l-0.149,0.062l-19.115,8.207
	l-7.953,3.413l-18.62,7.993l-7.955,3.415l-15.15,6.505l-11.974,5.14l-15.351,6.588l-11.974,5.139l-26.577,11.41l-0.866,0.373
	l-8.838,3.793l-0.15,0.062c-3.512,1.509-6.102,4.27-7.494,7.539c-3.804-9.417-13.016-16.067-23.795-16.067
	c-14.178,0-25.67,11.492-25.67,25.67v51.992c0,6.636,2.539,12.666,6.674,17.223h-8.299v49.393h-8.776v14.297h73.439v-14.297h-10.074
	v-49.389h-8.299c4.135-4.559,6.674-10.583,6.674-17.222v-46.854c2.265,3.191,5.696,5.271,9.447,5.861l0.017-0.082
	c2.608,0.435,5.364,0.166,7.972-0.953l3.503-1.506l14.606-6.268l11.971-5.14l15.349-6.588l11.974-5.139l15.152-6.506l11.974-5.139
	l14.602-6.267l11.975-5.14l15.352-6.588l11.975-5.139l5.945-2.555l0.151-0.064C360.268,126.423,363.629,118,360.518,110.757z
	 M201.005,189.971c-3.82-0.62-7.26-3.107-8.897-6.919l-0.383-0.896c-0.367-0.854-0.609-1.726-0.765-2.605
	c-0.038-0.471-0.092-0.937-0.155-1.4c-0.245-4.748,2.434-9.375,7.055-11.36l7.239-3.107l0.869-0.373L201.005,189.971z
	 M227.177,180.728l-14.603,6.268l5.368-28.824l14.6-6.267L227.177,180.728z M254.499,168.997l-15.349,6.588l5.362-28.824
	l15.352-6.59L254.499,168.997z M281.628,157.352l-15.155,6.506l5.36-28.826l15.157-6.506L281.628,157.352z M308.201,145.946
	l-14.604,6.267l5.367-28.826l14.598-6.268L308.201,145.946z M335.522,134.214l-15.347,6.589l5.362-28.825l15.35-6.59
	L335.522,134.214z M351.847,127.209l-4.352,1.866l4.474-24.015c-2.957-1.436-6.49-1.64-9.735-0.246l0.149-0.064
	c3.202-1.375,6.679-1.191,9.608,0.19l-0.022,0.119c2.436,1.185,4.478,3.209,5.63,5.887l0.384,0.896
	C360.526,117.772,357.776,124.666,351.847,127.209z"/>
</svg>
