<?xml version="1.0" encoding="utf-8"?>
<!-- Generator: Adobe Illustrator 16.0.0, SVG Export Plug-In . SVG Version: 6.00 Build 0)  -->
<!DOCTYPE svg PUBLIC "-//W3C//DTD SVG 1.1//EN" "http://www.w3.org/Graphics/SVG/1.1/DTD/svg11.dtd">
<svg version="1.1"
	 id="svg2" xmlns:cc="http://creativecommons.org/ns#" xmlns:dc="http://purl.org/dc/elements/1.1/" xmlns:inkscape="http://www.inkscape.org/namespaces/inkscape" xmlns:rdf="http://www.w3.org/1999/02/22-rdf-syntax-ns#" xmlns:sodipodi="http://sodipodi.sourceforge.net/DTD/sodipodi-0.dtd" xmlns:svg="http://www.w3.org/2000/svg"
	 xmlns="http://www.w3.org/2000/svg" xmlns:xlink="http://www.w3.org/1999/xlink" x="0px" y="0px" width="500px" height="500px"
	 viewBox="0 0 500 500" enable-background="new 0 0 500 500" xml:space="preserve">
<path d="M194.586,9.357c48.746,0,94.589,18.99,129.084,53.47c17.395,17.394,30.862,37.696,40.03,60.343
	c8.854,21.875,13.345,44.999,13.345,68.73s-4.49,46.856-13.346,68.732c-9.167,22.648-22.635,42.952-40.029,60.347
	c-34.493,34.478-80.336,53.466-129.084,53.466c-48.753,0-94.591-18.987-129.069-53.465c-71.166-71.177-71.166-186.984,0-258.154
	C99.997,28.346,145.835,9.357,194.586,9.357 M194.586,3.357c-50.358,0-97.706,19.621-133.312,55.227
	c-73.501,73.505-73.501,193.126,0,266.639c35.606,35.605,82.954,55.223,133.312,55.223c50.374,0,97.706-19.617,133.327-55.223
	c73.51-73.513,73.51-193.134,0-266.639C292.291,22.978,244.96,3.357,194.586,3.357L194.586,3.357z"/>
<path d="M495.824,497.496c-0.768,0-1.535-0.293-2.121-0.879L327.44,330.358c-1.172-1.171-1.172-3.07,0-4.242s3.07-1.172,4.242,0
	l166.264,166.259c1.172,1.171,1.172,3.07,0,4.242C497.36,497.203,496.592,497.496,495.824,497.496z"/>
<path d="M257.653,197.312h-129.81c-1.657,0-3-1.343-3-3s1.343-3,3-3h129.81c1.657,0,3,1.343,3,3S259.31,197.312,257.653,197.312z"/>
<path d="M192.747,262.217c-1.657,0-3-1.343-3-3v-129.81c0-1.657,1.343-3,3-3s3,1.343,3,3v129.81
	C195.747,260.874,194.404,262.217,192.747,262.217z"/>
</svg>
