<?xml version="1.0" encoding="UTF-8" standalone="no"?>
<!-- Generator: Adobe Illustrator 16.0.0, SVG Export Plug-In . SVG Version: 6.00 Build 0)  -->

<svg
   xmlns:dc="http://purl.org/dc/elements/1.1/"
   xmlns:cc="http://creativecommons.org/ns#"
   xmlns:rdf="http://www.w3.org/1999/02/22-rdf-syntax-ns#"
   xmlns:svg="http://www.w3.org/2000/svg"
   xmlns="http://www.w3.org/2000/svg"
   xmlns:sodipodi="http://sodipodi.sourceforge.net/DTD/sodipodi-0.dtd"
   xmlns:inkscape="http://www.inkscape.org/namespaces/inkscape"
   version="1.1"
   id="svg2"
   x="0px"
   y="0px"
   width="500px"
   height="500px"
   viewBox="0 0 500 500"
   enable-background="new 0 0 500 500"
   xml:space="preserve"
   inkscape:version="0.91 r13725"
   sodipodi:docname="arrow-right-white.svg"><metadata
     id="metadata9"><rdf:RDF><cc:Work
         rdf:about=""><dc:format>image/svg+xml</dc:format><dc:type
           rdf:resource="http://purl.org/dc/dcmitype/StillImage" /><dc:title /></cc:Work></rdf:RDF></metadata><defs
     id="defs7" /><sodipodi:namedview
     pagecolor="#ffffff"
     bordercolor="#666666"
     borderopacity="1"
     objecttolerance="10"
     gridtolerance="10"
     guidetolerance="10"
     inkscape:pageopacity="0"
     inkscape:pageshadow="2"
     inkscape:window-width="1366"
     inkscape:window-height="706"
     id="namedview5"
     showgrid="false"
     inkscape:zoom="0.5"
     inkscape:cx="1142.857"
     inkscape:cy="162.4601"
     inkscape:window-x="-8"
     inkscape:window-y="-8"
     inkscape:window-maximized="1"
     inkscape:current-layer="svg2" /><path
     d="m 368.86489,223.89575 c 9.1,8.047 9.1,22.904 0,30.961 l -204.838,180.919 c -9.139,8.076 -23.552,7.69 -32.188,-0.859 -8.617,-8.54 -8.211,-22.016 0.928,-30.092 l 187.313,-165.443 -187.314,-165.462997 c -4.733,-4.183 -7.13,-9.824 -7.13,-15.476 0,-5.246 2.067,-10.491 6.202,-14.606 8.637,-8.56 23.05,-8.936 32.188,-0.869 l 204.839,180.927997 z"
     id="path3"
     inkscape:connector-curvature="0"
     style="fill:#231f20" /><path
     style="fill:#ffffff"
     d="m 136.80731,437.2223 c -11.80564,-6.40668 -13.27606,-21.64958 -3.05029,-31.62024 3.575,-3.4858 47.25716,-42.2682 97.07146,-86.18308 l 90.57144,-79.84526 -4.57145,-4.36283 c -2.51429,-2.39956 -43.72145,-38.78048 -91.57145,-80.84649 -47.85,-42.06602 -89.475,-79.094548 -92.5,-82.285632 -9.27362,-9.782778 -7.1021,-24.739183 4.45997,-30.718163 7.84951,-4.059138 15.7885,-3.793511 23.04003,0.770888 9.91777,6.242635 207.72104,181.832457 211.48948,187.739047 4.67034,7.32026 4.41014,12.62192 -0.98948,20.16006 -4.9163,6.8634 -200.75861,180.39738 -210.5,186.52202 -7.13733,4.4874 -15.95096,4.7391 -23.44971,0.66968 z"
     id="path3357"
     inkscape:connector-curvature="0" /></svg>