<?xml version="1.0" encoding="utf-8"?>
<!-- Generator: Adobe Illustrator 16.0.0, SVG Export Plug-In . SVG Version: 6.00 Build 0)  -->
<!DOCTYPE svg PUBLIC "-//W3C//DTD SVG 1.1//EN" "http://www.w3.org/Graphics/SVG/1.1/DTD/svg11.dtd">
<svg version="1.1"
	 id="svg2" xmlns:cc="http://creativecommons.org/ns#" xmlns:dc="http://purl.org/dc/elements/1.1/" xmlns:inkscape="http://www.inkscape.org/namespaces/inkscape" xmlns:rdf="http://www.w3.org/1999/02/22-rdf-syntax-ns#" xmlns:sodipodi="http://sodipodi.sourceforge.net/DTD/sodipodi-0.dtd" xmlns:svg="http://www.w3.org/2000/svg"
	 xmlns="http://www.w3.org/2000/svg" xmlns:xlink="http://www.w3.org/1999/xlink" x="0px" y="0px" width="500px" height="500px"
	 viewBox="0 0 500 500" enable-background="new 0 0 500 500" xml:space="preserve">
<path d="M250.269,34.802c29.326,0,57.757,5.735,84.504,17.047c25.849,10.932,49.068,26.588,69.015,46.534
	c19.946,19.946,35.603,43.166,46.534,69.015c11.312,26.747,17.047,55.177,17.047,84.503c0,29.314-5.735,57.739-17.046,84.482
	c-10.933,25.849-26.59,49.07-46.536,69.02c-19.948,19.95-43.169,35.61-69.017,46.546C308.023,463.263,279.592,469,250.269,469
	c-29.323,0-57.752-5.737-84.5-17.052c-25.848-10.936-49.068-26.596-69.016-46.546c-19.946-19.949-35.604-43.171-46.536-69.02
	c-11.311-26.744-17.046-55.168-17.046-84.482c0-29.326,5.735-57.756,17.047-84.503c10.932-25.848,26.588-49.068,46.534-69.015
	c19.946-19.946,43.166-35.603,69.015-46.534C192.513,40.537,220.944,34.802,250.269,34.802 M250.269,4.802
	C113.786,4.802,3.171,115.417,3.171,251.9c0,136.438,110.615,247.1,247.098,247.1c136.485,0,247.1-110.662,247.1-247.1
	C497.368,115.417,386.754,4.802,250.269,4.802L250.269,4.802z"/>
</svg>
