<?xml version="1.0" encoding="utf-8"?>
<!-- Generator: Adobe Illustrator 16.0.0, SVG Export Plug-In . SVG Version: 6.00 Build 0)  -->
<!DOCTYPE svg PUBLIC "-//W3C//DTD SVG 1.1//EN" "http://www.w3.org/Graphics/SVG/1.1/DTD/svg11.dtd">
<svg version="1.1"
	 id="svg2" xmlns:cc="http://creativecommons.org/ns#" xmlns:dc="http://purl.org/dc/elements/1.1/" xmlns:inkscape="http://www.inkscape.org/namespaces/inkscape" xmlns:rdf="http://www.w3.org/1999/02/22-rdf-syntax-ns#" xmlns:sodipodi="http://sodipodi.sourceforge.net/DTD/sodipodi-0.dtd" xmlns:svg="http://www.w3.org/2000/svg"
	 xmlns="http://www.w3.org/2000/svg" xmlns:xlink="http://www.w3.org/1999/xlink" x="0px" y="0px" width="500px" height="500px"
	 viewBox="0 0 500 500" enable-background="new 0 0 500 500" xml:space="preserve">
<g>
	<g>
		<path fill-rule="evenodd" clip-rule="evenodd" d="M399.015,342.943C430.744,306.911,450,259.629,450,207.843
			C450,94.908,358.448,3.357,245.5,3.357S41,94.908,41,207.843c0,59.463,25.383,112.99,65.895,150.359L245.5,500l138.551-141.747
			C389.301,353.414,394.295,348.303,399.015,342.943L399.015,342.943L399.015,342.943z"/>
	</g>
</g>
<path fill="#FFFFFF" d="M379.985,260.2c0,7.214-6.822,14.037-14.036,14.037c-9.227,0-14.707,4.474-22.593,11.632
	c-7.885,7.158-18.454,18.454-35.565,18.454c-17.113,0-27.737-11.296-35.566-18.454c-7.886-7.214-13.031-11.632-22.258-11.632
	c-9.227,0-14.372,4.474-22.257,11.632c-7.885,7.158-18.454,18.454-35.566,18.454c-17.112,0-27.738-11.296-35.567-18.454
	c-7.885-7.214-13.03-11.632-22.257-11.632c-7.213,0-14.036-6.488-14.036-14.037c0-7.55,6.823-14.036,14.036-13.701
	c19.181,0,32.491,10.962,41.047,18.846c8.556,7.886,13.03,11.297,17.112,11.297c4.082,0,8.22-3.411,16.776-11.297
	c8.556-7.885,21.921-18.846,41.047-18.846c19.126,0,32.155,10.962,41.046,18.846c8.557,7.886,13.03,11.297,17.112,11.297
	c4.083,0,8.221-3.411,16.776-11.297c8.557-7.885,21.922-18.846,41.047-18.846C373.162,246.164,379.985,253.042,379.985,260.2z
	 M133.928,139.073c9.228,0,14.372,4.082,22.257,11.296s18.455,18.455,35.566,18.455c1.006,0,2.069,0,3.076,0
	c15.378-1.343,24.997-11.633,32.491-18.455c6.822-6.151,11.632-10.29,19.182-11.296c1.006,0,2.068-0.335,3.411-0.335
	c9.227,0,14.373,4.083,22.257,11.296c2.069,1.733,4.082,3.746,6.487,6.151c7.213,6.151,16.105,12.639,29.079,12.639
	c1.007,0,2.068,0,3.076,0c15.378-1.343,24.996-11.633,32.49-18.455c6.823-6.151,11.632-10.29,19.182-11.296
	c1.006,0,2.069-0.335,3.411-0.335c1.734,0,3.747-0.336,5.145-1.007c0.671-0.335,1.734-0.671,2.405-1.342
	c3.746-2.405,6.487-6.823,6.487-11.296c0-1.734-0.336-3.747-1.007-5.145l0,0c-0.671-1.733-1.734-3.076-3.075-4.474
	c-0.672-0.671-1.343-1.342-2.069-1.733c-0.671-0.335-1.343-1.007-2.404-1.342c-1.008-0.335-1.734-0.671-2.741-0.671
	c-1.006-0.336-1.733-0.336-2.739-0.336c-1.007,0-2.405,0-3.412,0c-17.111,1.342-29.414,10.961-37.635,18.455
	c-7.55,6.822-11.632,10.625-15.379,11.296c-0.671,0-1.007,0.335-1.342,0.335c-1.007,0-2.069-0.335-3.076-0.671
	c-2.069-1.006-4.809-2.74-7.885-5.815c-1.734-1.343-3.747-3.076-5.816-5.145c-8.556-7.885-21.921-18.455-41.046-18.455
	c-1.007,0-2.405,0-3.411,0c-17.113,1.342-29.416,10.961-37.636,18.455c-7.549,6.822-11.631,10.625-15.378,11.296
	c-0.67,0-1.006,0.335-1.342,0.335c-1.006,0-2.069-0.335-3.076-0.671c-1.006-0.335-2.404-1.342-3.747-2.069
	c-2.74-1.734-5.816-4.81-10.29-8.556c-8.556-7.885-21.921-18.454-41.046-18.454c-0.336,0-1.007,0-1.342,0l0,0
	c-7.214,0.335-13.701,7.214-13.03,14.372C119.557,133.257,126.715,139.409,133.928,139.073z M365.614,178.777
	c-1.007,0-2.405,0-3.412,0c-17.111,1.343-29.414,11.297-37.635,18.455c-7.55,6.822-11.632,10.625-15.379,11.296
	c-0.671,0-1.007,0.335-1.342,0.335c-1.342,0-3.076-0.671-4.81-1.732c-3.075-1.734-6.822-4.81-11.968-9.898
	c-8.556-7.886-21.92-18.846-41.045-18.846c-1.007,0-2.405,0-3.412,0c-17.112,1.342-29.415,11.296-37.636,18.454
	c-7.549,6.822-11.631,10.625-15.378,11.296c-0.671,0-1.006,0.336-1.342,0.336c-1.342,0-3.076-0.671-4.81-1.733
	c-0.671-0.336-1.342-0.672-2.069-1.007c-2.74-1.733-5.815-4.81-10.289-8.557c-8.556-7.885-21.921-18.846-41.047-18.846
	c-7.214,0-14.037,6.487-14.037,14.037c0,7.549,6.823,14.036,14.037,13.7c9.227,0,14.372,4.474,22.257,11.632
	c7.885,7.214,18.454,18.454,35.566,18.454c1.007,0,2.069,0,3.076,0c15.379-1.341,24.998-11.632,32.491-18.454
	c4.81-4.474,8.892-7.885,13.366-9.563c1.006-0.335,1.733-0.671,2.74-1.006c1.007-0.336,2.069-0.336,3.076-0.672
	c1.007,0,2.069-0.335,3.412-0.335c9.227,0,14.372,4.474,22.256,11.632c2.069,1.733,4.083,3.746,6.487,6.151
	c7.214,6.151,16.105,12.638,29.079,12.638c1.007,0,2.069,0,3.076,0c15.378-1.342,24.997-11.632,32.491-18.454
	c4.809-4.474,8.891-7.885,13.364-9.563c1.007-0.336,1.734-0.671,2.74-1.007c1.006-0.335,2.069-0.335,3.076-0.671
	c1.007,0,2.069-0.335,3.411-0.335c7.214,0,14.037-6.487,14.037-13.701C379.985,185.601,373.162,178.777,365.614,178.777z"/>
</svg>
