<?xml version="1.0" encoding="UTF-8" standalone="no"?>
<!-- Generator: Adobe Illustrator 16.0.0, SVG Export Plug-In . SVG Version: 6.00 Build 0)  -->

<svg
   xmlns:dc="http://purl.org/dc/elements/1.1/"
   xmlns:cc="http://creativecommons.org/ns#"
   xmlns:rdf="http://www.w3.org/1999/02/22-rdf-syntax-ns#"
   xmlns:svg="http://www.w3.org/2000/svg"
   xmlns="http://www.w3.org/2000/svg"
   xmlns:sodipodi="http://sodipodi.sourceforge.net/DTD/sodipodi-0.dtd"
   xmlns:inkscape="http://www.inkscape.org/namespaces/inkscape"
   version="1.1"
   id="Слой_1"
   x="0px"
   y="0px"
   width="337px"
   height="105px"
   viewBox="0 0 337 105"
   enable-background="new 0 0 337 105"
   xml:space="preserve"
   inkscape:version="0.91 r13725"
   sodipodi:docname="logo.svg"><metadata
     id="metadata3367"><rdf:RDF><cc:Work
         rdf:about=""><dc:format>image/svg+xml</dc:format><dc:type
           rdf:resource="http://purl.org/dc/dcmitype/StillImage" /></cc:Work></rdf:RDF></metadata><defs
     id="defs3365" /><sodipodi:namedview
     pagecolor="#ffffff"
     bordercolor="#666666"
     borderopacity="1"
     objecttolerance="10"
     gridtolerance="10"
     guidetolerance="10"
     inkscape:pageopacity="0"
     inkscape:pageshadow="2"
     inkscape:window-width="1366"
     inkscape:window-height="706"
     id="namedview3363"
     showgrid="false"
     inkscape:zoom="2.2551929"
     inkscape:cx="134.84036"
     inkscape:cy="83.972014"
     inkscape:window-x="-8"
     inkscape:window-y="-8"
     inkscape:window-maximized="1"
     inkscape:current-layer="Слой_1" /><path
     d="m 18.043,33.05 0,22.544 -8.374,8.181 0,-39.164 z m 23.51,0.063 11.916,0 -43.8,42.963 0,-11.915 z M 26.739,24.225 18.236,32.727 9.734,24.225 18.236,15.787 Z M 9.862,76.269 53.663,33.308 l 0,11.852 -31.949,31.11 -11.852,0 z m 16.877,-29.178 -8.439,8.18 0,-22.221 8.439,-8.438 z m 5.281,19.71 5.926,-5.99 15.523,15.458 -11.916,0 z m 21.643,9.275 -15.459,-15.458 6.055,-5.798 9.404,9.341 z m -0.174,4.193 -0.02,0 -11.916,0 c -1.056,0 -2.069,-0.418 -2.819,-1.162 l -7.031,-6.982 -7.199,7.011 c -0.747,0.727 -1.748,1.134 -2.791,1.134 l -11.851,0 C 8.733,80.27 7.681,79.795 6.939,79 6.144,78.258 5.669,77.206 5.669,76.077 l 0,-11.916 c 0,-0.064 0.001,-0.129 0.005,-0.193 C 5.671,63.904 5.669,63.839 5.669,63.775 l 0,-39.164 c 0,-0.289 0.031,-0.572 0.09,-0.847 0.104,-0.896 0.509,-1.737 1.156,-2.379 l 8.502,-8.438 c 1.56,-1.548 4.075,-1.548 5.635,0 l 8.503,8.438 c 0.755,0.749 1.181,1.768 1.183,2.832 0,0.067 -0.001,0.134 -0.005,0.201 0.003,0.064 0.005,0.129 0.005,0.194 l 0,13.45 8.024,-7.813 c 0.747,-0.728 1.748,-1.134 2.791,-1.134 l 11.916,0 c 1.131,0 2.185,0.477 2.927,1.274 0.793,0.743 1.266,1.792 1.266,2.92 l 0,11.852 c 0,1.079 -0.436,2.113 -1.209,2.866 l -6.747,6.569 6.775,6.729 c 0.756,0.751 1.181,1.772 1.181,2.838 l 0,11.915 c 0,1.055 -0.414,2.042 -1.117,2.772 -0.733,0.867 -1.83,1.419 -3.056,1.419 z m -10.287,-8 0.582,0 -5.816,-5.792 -0.296,0.3 z m -23.55,0 0.436,0 29.575,-28.798 0,-0.637 z m -5.983,-6.419 0,0.7 30.01,-29.437 -0.5,0 z m 30.254,-5.17 5.74,5.74 0,-0.594 -5.455,-5.419 z m -30.254,-26.359 0,19.953 0.374,-0.364 0,-19.212 z m 8.631,0.386 0,11.117 0.439,-0.425 0,-11.13 z m -6.899,-10.472 2.835,2.835 2.835,-2.835 -2.835,-2.813 z m 42.256,43.276 0,-27.635 8.567,8.502 0,27.697 z m 8.696,-19.454 -8.631,-8.631 8.631,-8.567 8.696,8.632 z m 8.825,19.454 -8.632,8.565 0,-27.697 8.632,-8.502 z m -8.952,12.565 c -1.041,0 -2.064,-0.406 -2.829,-1.171 L 54.83,70.34 c -0.75,-0.751 -1.172,-1.769 -1.172,-2.829 l 0,-27.635 c 0,-0.268 0.027,-0.532 0.078,-0.788 0.08,-0.942 0.492,-1.83 1.168,-2.501 l 8.631,-8.567 c 1.56,-1.548 4.076,-1.548 5.636,0 l 8.696,8.632 c 0.496,0.492 0.849,1.1 1.034,1.76 0.18,0.458 0.277,0.953 0.277,1.464 l 0,27.634 c 0,1.066 -0.426,2.088 -1.183,2.839 l -8.632,8.565 c -0.803,0.798 -1.891,1.196 -2.978,1.158 -0.053,0.003 -0.106,0.004 -0.159,0.004 z m 4.32,-30.022 0,16.418 0.632,-0.627 0,-16.414 z m -8.889,15.8 0.567,0.567 0,-16.376 -0.567,-0.563 z m 1.732,-26.417 2.985,2.985 2.986,-2.941 -3.007,-2.985 z m 24.348,1.921 -8.502,8.503 0,-25.958 8.502,-8.567 z m -8.502,25.894 0,-16.747 8.438,8.438 z m 8.695,-25.701 8.309,0 -8.373,8.503 -8.373,0 z m 0,17.199 -8.437,-8.438 8.373,0 8.373,8.438 z m -8.437,8.696 8.437,-8.439 8.309,0 -8.373,8.439 z m 0,0.257 8.373,0 8.373,8.503 -7.857,0 z m 16.94,-26.409 -8.438,0 0,-25.958 8.438,8.567 z m 0.193,17.392 -8.503,-8.438 8.503,-8.696 8.502,8.567 z m 0,17.52 -8.503,-8.567 8.503,-8.502 8.502,8.502 z m 0,4 c -0.061,0 -0.122,-0.001 -0.183,-0.004 -0.064,0.003 -0.138,0.005 -0.194,0.004 l -0.01,0 -7.857,0 c -1.03,0 -2.021,-0.397 -2.765,-1.109 L 76.728,70.594 C 76.38,70.261 76.103,69.876 75.899,69.46 75.474,68.818 75.234,68.055 75.234,67.252 l 0,-16.747 c 0,-0.108 0.004,-0.215 0.013,-0.322 -0.008,-0.106 -0.013,-0.214 -0.013,-0.322 l 0,-25.958 c 0,-1.056 0.417,-2.068 1.161,-2.818 l 8.502,-8.567 c 0.797,-0.803 1.876,-1.213 2.968,-1.18 1.087,-0.033 2.181,0.381 2.979,1.191 l 8.438,8.567 c 0.737,0.748 1.15,1.756 1.15,2.807 l 0,15.805 7.536,7.593 c 1.548,1.56 1.547,4.076 0,5.636 l -5.92,5.965 5.909,5.909 c 1.558,1.558 1.563,4.082 0.011,5.646 l -8.502,8.567 c -0.751,0.756 -1.773,1.182 -2.84,1.182 z m -2.856,-12.557 2.856,2.878 2.856,-2.878 -2.856,-2.856 z m -0.011,-17.444 2.846,2.825 2.888,-2.911 -2.846,-2.868 z m -10.524,-24.654 0,14.653 0.502,-0.502 0,-14.658 z m 8.76,11.743 0.438,0 0,-11.752 -0.438,-0.444 z m 14.486,4.129 8.502,-8.502 0,25.83 -8.502,8.373 z m 34.461,17.584 -8.502,8.374 -25.701,0 8.374,-8.374 z m -25.83,17.135 -8.374,-8.374 25.701,0 8.502,8.374 z m 0.065,-43.222 8.438,8.502 0,17.263 -8.438,0 z m 25.765,-0.257 -8.502,8.567 -8.567,0 -8.502,-8.567 z m -17.004,13.076 0,-4.251 8.438,0 0,4.251 z m 8.502,4.508 8.502,8.438 -17.004,0 0,-8.438 z m 8.695,-8.889 -8.438,8.374 0,-8.309 8.438,-8.438 z m 8.631,8.697 -8.502,8.631 -8.566,-8.631 8.566,-8.503 z m 0,17.519 -8.502,8.502 -8.566,-8.502 8.566,-8.567 z m 0.065,-26.151 0,8.309 -8.373,-8.374 0,-8.373 z m -8.869,38.719 -0.02,0 -25.83,0 c -1.061,0 -2.078,-0.422 -2.829,-1.172 l -8.374,-8.374 c -0.477,-0.477 -0.814,-1.054 -1.001,-1.673 -0.276,-0.547 -0.428,-1.161 -0.428,-1.8 l 0,-25.7 c 0,-1.061 0.421,-2.078 1.171,-2.829 l 8.502,-8.502 c 0.246,-0.245 0.518,-0.454 0.808,-0.624 0.68,-0.512 1.52,-0.805 2.407,-0.805 l 25.571,0 c 0.872,0 1.698,0.283 2.371,0.778 0.357,0.187 0.69,0.43 0.984,0.727 l 8.373,8.438 c 0.744,0.749 1.161,1.762 1.161,2.817 l 0,8.309 c 0,0.322 -0.039,0.638 -0.112,0.942 -0.125,0.799 -0.492,1.568 -1.103,2.188 l -5.886,5.974 5.875,5.921 c 1.552,1.563 1.547,4.088 -0.011,5.646 l -8.502,8.502 c -0.601,0.602 -1.346,0.972 -2.124,1.109 -0.319,0.084 -0.655,0.128 -1.003,0.128 z m -24.193,-8 14.412,0 -0.38,-0.374 -14.406,0 z m 21.596,-4.579 2.888,2.866 2.867,-2.866 -2.867,-2.889 z m -21.97,-4.182 14.406,0 0.38,-0.374 -14.412,0 z m -5.914,-20.301 0,14.49 0.502,-0.495 0,-14.498 z m 17.457,11.606 3.296,0 -0.441,-0.438 -2.854,0 0,0.438 z m -8.761,0 0.438,0 0,-11.615 -0.438,-0.441 z m 19.177,-4.61 2.899,2.921 2.877,-2.921 -2.877,-2.878 z m -12.815,-12.846 5.235,0 0.563,-0.567 -6.361,0 z m 27.579,4.58 8.436,8.567 0,26.022 -8.436,8.439 z m 8.501,51.787 -8.373,-8.438 8.373,-8.502 8.697,8.502 z m 0.194,-60.612 25.764,0 -8.438,8.309 -25.83,0 z m -8.503,8.696 25.83,0 8.438,8.501 -25.764,0 z m 8.567,8.76 8.438,0 0,34.397 -8.438,-8.439 z m 8.696,8.63 17.263,0 8.437,8.503 -25.699,0 0,-8.503 z m 0,8.825 25.699,0 -8.437,8.31 -17.263,0 0,-8.31 z m 17.327,-34.911 8.438,8.502 -8.438,8.503 -8.567,-8.503 z m -8.567,17.456 8.374,0 0,8.374 -8.374,0 z m 17.198,-8.631 0,25.571 -8.438,-8.502 0,-8.502 z m -34.912,55.787 c -1.029,0 -2.058,-0.395 -2.839,-1.183 l -8.373,-8.438 c -0.437,-0.44 -0.751,-0.958 -0.941,-1.508 -0.225,-0.504 -0.348,-1.057 -0.348,-1.631 l 0,-43.027 c 0,-0.581 0.126,-1.142 0.356,-1.65 0.19,-0.642 0.541,-1.239 1.041,-1.727 l 8.503,-8.309 c 0.747,-0.73 1.75,-1.139 2.795,-1.139 l 25.764,0 c 0.054,0 0.108,0.001 0.162,0.003 0.059,-0.003 0.107,-0.003 0.177,-0.003 1.061,0.004 2.076,0.429 2.823,1.183 17.8679,15.736653 15.95428,33.078339 -0.097,48.888 -0.748,0.737 -1.756,1.15 -2.807,1.15 l -13.521,0 0,4.632 c 0,0.054 -0.001,0.107 -0.003,0.161 0.002,0.056 0.003,0.111 0.003,0.168 -0.002,1.079 -0.44,2.111 -1.215,2.863 l -8.697,8.438 c -0.775,0.753 -1.779,1.129 -2.783,1.129 z m -2.749,-12.449 2.802,2.823 2.91,-2.823 -2.91,-2.845 z m 7.007,-10.406 0.438,0.438 0,-20.739 -0.438,0 z m -8.759,-23.17 0,23.606 0.436,-0.437 0,-22.726 z m 17.455,20.634 11.624,0 0.313,-0.31 -11.938,0 0,0.31 z m 0,-8.632 12.096,0 -0.499,-0.503 -11.597,0 z m 17.52,-6.344 0.438,0.442 0,-6.102 -0.438,0.445 z m -17.778,-2.159 1.018,0 0,-0.889 -1.018,0 z m 9.018,-0.257 0.374,0 0,-0.373 -0.374,0 z m -19.863,-8.632 14.502,0 -0.498,-0.501 -14.506,0 z m 21.542,-4.695 2.867,2.846 2.824,-2.846 -2.824,-2.846 z m -21.886,-4.193 14.375,0 0.313,-0.309 -14.372,0 z m 33.333,30.217 c -130.972667,24.992667 -65.48633,12.496333 0,0 z"
     id="path3357"
     inkscape:connector-curvature="0"
     style="fill:#ffffff"
     sodipodi:nodetypes="ccccccccccccccccccccccccccccccccccccscscccsscsscsscccccccsccsscsscccsscsccccccccccccccccccccccccccccccccccccccccccccccccccsccsscsccccsscccscccccccccccccccccccccccccccccccccccccccccccccccccccccccccccscccscccsscsscccccsccccsccscccccccccccccccccccccccccccccccccccccccccccccccccccccccccccccccccccccccccccscscscsscccsscccssccccsccscccccccccccccccccccccccccccccccccccccccccccccccccccccccccccccccccccccccccccccccccccccccccccccscccsscccssccccscsccccscccccccccccccccccccccccccccccccccccccccccccccccccccccccccc" /><path
     d="M17.773,33.573v22.544l-8.374,8.18V25.135L17.773,33.573z M41.284,33.637H53.2L9.399,76.6V64.684  L41.284,33.637z M26.469,24.749l-8.503,8.502l-8.501-8.502l8.501-8.439L26.469,24.749z M9.592,76.794l43.801-42.963v11.852  L21.444,76.794H9.592z M26.469,47.615l-8.438,8.181V33.573l8.438-8.438V47.615z M31.75,67.325l5.926-5.991L53.2,76.794H41.284  L31.75,67.325z M53.393,76.6L37.934,61.142l6.055-5.796l9.404,9.338V76.6z M57.387,68.034V40.4l8.567,8.502V76.6L57.387,68.034z   M66.083,48.581l-8.631-8.631l8.631-8.567l8.696,8.632L66.083,48.581z M74.908,68.034L66.276,76.6V48.903l8.632-8.502V68.034z   M87.468,41.882l-8.502,8.502V24.426l8.502-8.566V41.882z M78.965,67.776V51.029l8.438,8.438L78.965,67.776z M87.661,42.075h8.309  l-8.373,8.503h-8.374L87.661,42.075z M87.661,59.273l-8.438-8.438h8.374l8.373,8.438H87.661z M79.223,67.969l8.438-8.438h8.309  l-8.373,8.438H79.223z M79.223,68.228h8.374l8.373,8.502h-7.858L79.223,68.228z M96.164,41.818h-8.439V15.859l8.439,8.566V41.818z   M96.357,59.209l-8.503-8.438l8.503-8.695l8.501,8.568L96.357,59.209z M96.357,76.729l-8.503-8.567l8.503-8.502l8.501,8.502  L96.357,76.729z M106.212,41.946l8.502-8.502v25.829l-8.502,8.374V41.946z M140.672,59.531l-8.502,8.373h-25.701l8.374-8.373  H140.672z M114.843,76.664l-8.374-8.372h25.701l8.502,8.372H114.843z M114.907,33.444l8.438,8.502v17.263h-8.438V33.444z   M140.672,33.186l-8.502,8.567h-8.567l-8.502-8.567H140.672z M123.667,46.262v-4.251h8.438v4.251H123.667z M132.17,50.771  l8.502,8.438h-17.005v-8.438H132.17z M140.866,41.882l-8.438,8.374v-8.31l8.438-8.437V41.882z M149.497,50.579l-8.502,8.63  l-8.567-8.63l8.567-8.503L149.497,50.579z M149.497,68.099l-8.502,8.501l-8.567-8.501l8.567-8.567L149.497,68.099z M149.562,41.946  v8.31l-8.374-8.374v-8.373L149.562,41.946z"
     id="path3359"
     fill="#00ADEE" /><path
     d="m 152.847,42.333 8.438,8.566 0,26.023 -8.438,8.438 z m 8.502,51.788 -8.373,-8.439 8.373,-8.502 8.697,8.502 z m 0.194,-60.612 25.764,0 -8.437,8.309 -25.83,0 z m -8.503,8.696 25.831,0 8.437,8.502 -25.764,0 z m 8.567,8.759 8.439,0 0,34.397 -8.439,-8.438 z m 8.696,8.632 17.264,0 8.438,8.503 -25.701,0 0,-8.503 z m 0,8.824 25.701,0 -8.438,8.31 -17.264,0 0,-8.31 z m 17.328,-34.911 8.438,8.501 -8.438,8.503 -8.568,-8.503 z m -8.568,17.455 8.374,0 0,8.374 -8.374,0 z m 17.199,-8.631 0,25.571 -8.439,-8.501 0,-8.504 z"
     id="path3361"
     inkscape:connector-curvature="0"
     style="fill:#58595b"
     sodipodi:nodetypes="cccccccccccccccccccccccccccccccccccccccccccccccccccc" /><path
     style="fill:none"
     id="path3381"
     d="m -292.7933,85.644685 c 3.69316,-3.267195 7.39018,-6.535181 11.09184,-9.796152 1.57097,-1.232734 3.10721,-2.511057 4.71291,-3.698203 4.53905,-3.35586 11.48965,-8.039183 15.99113,-11.040312 11.39801,-7.599028 22.92923,-14.986616 34.49517,-22.326033 22.47821,-13.804249 44.50579,-28.598007 68.32673,-40.0419223 1.97678,-0.8025946 3.90766,-1.7291198 5.93034,-2.4077839 4.62103,-1.5504827 9.7764,-2.5703042 14.55263,-3.4190859 7.18196,-1.2763046 14.42183,-2.1705255 21.66523,-3.0027269 6.57951,-0.713632 13.42385,-1.051197 19.866161,0.8161725 2.752682,0.7978927 4.010442,1.5849179 6.514844,2.8648134 2.984229,2.1246611 6.079766,4.3281373 8.488885,7.1292179 3.873597,4.5038286 6.618479,9.8063212 9.403186,15.0026172 3.759592,7.037725 6.542915,14.510106 7.886245,22.387041 0.80423,4.715791 0.93606,7.680263 1.324562,12.466684 0.4294,8.932654 0.316031,17.927018 -1.101671,26.776112 -0.899859,5.616791 -1.462237,7.184855 -2.912735,12.642798 -3.289632,10.666548 -8.527456,20.662628 -15.641624,29.284238 -1.394753,1.6903 -2.929028,3.26045 -4.393542,4.89067 -3.490476,3.3697 -6.943617,6.94726 -11.191039,9.39432 -5.494842,3.16573 -11.007122,7.28772 -17.364382,8.77491 -1.15934,0.27121 -2.34937,0.38858 -3.52405,0.58287 -10.12072,0.85904 -20.31011,0.45534 -30.45762,0.40762 -5.99301,-0.15391 -12.01027,0.21138 -17.98492,-0.46466 -2.24435,-0.25395 -4.52407,-0.43335 -6.6908,-1.07122 -6.75359,-1.9882 -9.95577,-4.49316 -16.01447,-8.14837 -2.68827,-2.21243 -5.63166,-4.14703 -8.0648,-6.63731 -5.23844,-5.36145 -12.0443,-15.33262 -16.01541,-21.45614 -6.81006,-10.501235 -12.88717,-21.442784 -18.78892,-32.468566 -4.77116,-9.642073 -8.68104,-19.764635 -11.18082,-30.243829 -0.53412,-2.239081 -2.17828,-10.955535 -2.62307,-13.277279 -1.34584,-8.883387 -2.91482,-17.854873 -2.5517,-26.8796664 0.25691,-6.3852161 0.67438,-7.1638588 1.93856,-13.4243336 1.63944,-6.649309 3.41579,-13.440565 7.01709,-19.350391 1.93426,-3.174166 2.76429,-3.823497 5.25577,-6.56423 1.39192,-1.103265 2.73458,-2.271713 4.17578,-3.309796 1.59605,-1.149628 3.23872,-2.23817 4.92726,-3.247066 7.60905,-4.546376 15.72989,-9.731688 24.18947,-12.971179 1.36332,-0.522069 2.76962,-0.924148 4.15443,-1.386223 10.47414,-2.597858 21.27718,-3.616034 31.97517,-4.893364 7.25775,-0.98288 14.57805,-1.104712 21.8874,-1.225656 4.14991,-0.121782 8.30364,0.114976 12.42678,-0.425467 4.75099,-0.611532 12.34876,-5.324123 -7.04498,4.873081 -0.33134,0.17422 0.58218,-0.476597 0.82713,-0.759693 0.25549,-0.295286 0.44316,-0.643028 0.66474,-0.964542 1.76182,-4.438046 1.45904,-9.498779 1.58778,-14.19792 0.18576,-10.176474 0.26317,-20.358756 0.0158,-30.53451 -0.15693,-4.69109 -1.11155,-9.25921 -2.50641,-13.72339 -0.55923,-1.7898 -1.41283,-4.29351 -2.3409,-5.98875 -0.41939,-0.76607 -0.96909,-1.45321 -1.45364,-2.17982 -0.60963,-0.59352 -1.15689,-1.25871 -1.82889,-1.78056 -4.1739,-3.24121 -10.67313,-3.69362 -15.70773,-4.27678 -4.73361,-0.3446 -9.5541,-0.92791 -14.27263,-0.0517 -2.38301,0.44249 -5.35288,1.48713 -7.65931,2.23651 -1.03565,0.42571 -2.09033,0.80781 -3.10697,1.27713 -0.83134,0.38378 -3.23633,1.71477 -2.43084,1.27934 3.0478,-1.64756 5.96745,-3.56499 9.15788,-4.9158 0.63432,-0.26857 -0.94222,1.01501 -1.31415,1.5948 -0.9907,1.54438 -0.98708,2.19764 -1.40688,3.95898 0.0227,0.70237 -0.043,1.41319 0.068,2.1071 1.04726,6.54462 7.6889,10.86305 12.41467,14.6207 2.90165,1.6211 5.72349,3.39414 8.70495,4.86329 16.31433,8.039072 34.0056,13.008096 51.57794,17.409187 7.753223,2.111167 15.417567,3.047548 23.368952,3.685806 9.395964,1.061678 18.835437,1.615863 28.261456,2.331976 6.834566,0.501369 13.692972,0.907167 20.543389,0.433156 5.544787,-0.383667 8.081007,-0.871024 13.62478,-1.689303 9.941314,-1.656912 19.7430399,-4.082123 29.3672685,-7.057402 0,0 -9.8782918,7.619269 -9.8782918,7.619269 l 0,0 c -9.5571747,2.679088 -19.2321647,4.972947 -29.0305507,6.58449 -5.56875,0.807132 -8.283501,1.306178 -13.863619,1.705202 -6.94653,0.496734 -13.916912,0.184445 -20.846645,-0.391557 -9.51707,-0.801053 -19.041071,-1.470645 -28.570483,-2.109122 -7.703876,-0.594555 -15.213006,-2.253366 -22.612846,-4.491529 -20.77093,-6.008274 -41.5815,-12.462098 -60.84001,-22.452563 -5.32638,-3.84505 -12.16977,-8.1662 -13.64386,-15.14963 -0.1661,-0.78689 -0.14591,-1.60182 -0.21886,-2.40274 0.31393,-1.96469 0.26985,-2.65709 1.16077,-4.45529 3.22599,-6.51118 12.73384,-9.25642 19.4374,-12.03377 2.72683,-0.81361 4.96388,-1.57411 7.79978,-2.02399 4.79759,-0.76107 9.64646,-0.22173 14.4361,0.27261 5.50748,0.68883 11.9092,1.12587 16.37787,4.84516 0.71931,0.59868 1.3047,1.34203 1.95705,2.01305 0.50718,0.79797 1.09018,1.55255 1.52154,2.39393 0.90091,1.75723 1.68319,4.42009 2.20314,6.26181 1.29763,4.59638 2.32019,9.27213 2.51434,14.063 0.20745,10.15134 0.0403,20.30685 0.22391,30.459257 0.024,4.828396 0.38035,9.851767 -0.86946,14.558017 -2.76573,6.177054 -10.31593,9.275326 -16.83855,9.960148 -4.05431,0.32551 -8.125,0.0024 -12.18733,0.102721 -7.19642,0.07375 -14.39212,0.352198 -21.55105,1.131294 -10.70952,1.13272 -21.5161,2.264324 -31.91128,5.185208 -4.05222,1.432168 -4.26109,1.390814 -8.22404,3.273513 -1.50752,0.716186 -5.67959,3.409048 -4.46654,2.262726 1.55011,-1.464839 3.42451,-2.809786 5.51132,-3.25003 3.536,-0.745975 -11.97749,6.170541 -8.9191,6.163432 -2.48242,2.556109 -3.43528,3.295289 -5.40419,6.285423 -3.82606,5.810526 -5.82672,12.571693 -7.60159,19.222214 -1.3306,6.2387894 -1.71703,6.814353 -2.02951,13.1928123 -0.43893,8.9598861 1.09257,17.8653777 2.44797,26.6837357 0.25194,1.353183 2.21644,11.967319 2.50208,13.245975 2.33873,10.469558 6.08308,20.58565 10.45838,30.36033 1.56175,3.190415 3.04423,6.42087 4.68524,9.571247 3.96309,7.608218 8.74342,15.974005 13.46647,23.093767 4.51919,6.81243 10.49382,15.07593 16.45703,20.8276 2.47961,2.39164 5.40743,4.27006 8.11115,6.40509 6.746,3.80348 8.81581,5.59821 16.2116,7.4763 2.19165,0.55654 4.47054,0.7012 6.72159,0.91528 5.98549,0.56923 12.00189,0.21993 17.99954,0.37862 10.22168,0.0711 20.51178,0.34675 30.67898,-0.86815 1.15073,-0.24489 2.3185,-0.42016 3.45218,-0.73467 1.06396,-0.29518 3.97957,-1.79324 3.1277,-1.09077 -2.24064,1.84766 -4.9292,3.0725 -7.39385,4.60869 -1.18838,0.7407 2.42614,-1.40756 3.56508,-2.22226 3.1303,-2.23916 5.32439,-4.43632 8.181786,-7.06179 3.865777,-4.15836 5.371997,-5.50968 8.695802,-10.19106 5.075427,-7.14844 8.832515,-15.12993 11.54049,-23.447512 1.485053,-5.339831 2.097489,-7.018738 3.035628,-12.519922 1.492956,-8.754599 1.6092,-17.671784 1.161174,-26.520286 -0.419403,-4.911355 -0.529076,-7.452762 -1.355805,-12.281041 -1.328063,-7.756187 -3.926301,-15.18294 -7.579324,-22.150303 -1.059925,-1.896811 -2.044044,-3.838018 -3.179775,-5.690435 -3.806211,-6.2080633 -8.608084,-11.6602308 -14.854826,-15.4817864 -2.43748,-1.21701551 -3.55879,-1.9155934 -6.22742,-2.6675018 -6.26185,-1.7643272 -12.86039,-1.4232128 -19.25119,-0.7739622 -14.19213,1.5082169 -28.6829,3.15748014 -41.82181,9.0889079 -12.10003,5.8029425 0.003,-0.1162532 -13.32804,6.8020395 -0.20154,0.104595 0.73963,-0.525247 0.54387,-0.410177 -12.28511,7.221543 -24.38386,14.751904 -36.40892,22.397174 -11.36504,7.219607 -22.68595,14.496086 -33.84406,22.033681 -4.42511,2.989283 -10.71223,7.308897 -15.14322,10.619048 -1.51729,1.13349 -2.97666,2.342531 -4.46499,3.513797 -3.50046,3.177361 -7.02516,6.326879 -10.44743,9.582717 0,0 -12.18589,4.918607 -12.18589,4.918607 z"
     inkscape:connector-curvature="0" /></svg>