<?xml version="1.0" encoding="utf-8"?>
<!-- Generator: Adobe Illustrator 16.0.0, SVG Export Plug-In . SVG Version: 6.00 Build 0)  -->
<!DOCTYPE svg PUBLIC "-//W3C//DTD SVG 1.1//EN" "http://www.w3.org/Graphics/SVG/1.1/DTD/svg11.dtd">
<svg version="1.1" id="Слой_1" xmlns="http://www.w3.org/2000/svg" xmlns:xlink="http://www.w3.org/1999/xlink" x="0px" y="0px"
	 width="337px" height="105px" viewBox="0 0 337 105" enable-background="new 0 0 337 105" xml:space="preserve">
<path fill="#FFFFFF" d="M18.043,33.05v22.544l-8.374,8.181V24.611L18.043,33.05z M41.553,33.113h11.916l-43.8,42.963V64.161
	L41.553,33.113z M26.739,24.225l-8.503,8.502l-8.502-8.502l8.502-8.438L26.739,24.225z M9.862,76.269l43.801-42.961v11.852
	l-31.949,31.11H9.862z M26.739,47.091l-8.439,8.18V33.05l8.439-8.438V47.091z M32.02,66.801l5.926-5.99l15.523,15.458H41.553
	L32.02,66.801z M53.663,76.076L38.204,60.618l6.055-5.798l9.404,9.341V76.076z M53.489,80.269c-0.008,0-0.014,0-0.02,0H41.553
	c-1.056,0-2.069-0.418-2.819-1.162l-7.031-6.982l-7.199,7.011c-0.747,0.727-1.748,1.134-2.791,1.134H9.862
	c-1.129,0-2.181-0.475-2.923-1.27c-0.795-0.742-1.27-1.794-1.27-2.923V64.161c0-0.064,0.001-0.129,0.005-0.193
	c-0.003-0.064-0.005-0.129-0.005-0.193V24.611c0-0.289,0.031-0.572,0.09-0.847c0.104-0.896,0.509-1.737,1.156-2.379l8.502-8.438
	c1.56-1.548,4.075-1.548,5.635,0l8.503,8.438c0.755,0.749,1.181,1.768,1.183,2.832c0,0.067-0.001,0.134-0.005,0.201
	c0.003,0.064,0.005,0.129,0.005,0.194v13.45l8.024-7.813c0.747-0.728,1.748-1.134,2.791-1.134h11.916
	c1.131,0,2.185,0.477,2.927,1.274c0.793,0.743,1.266,1.792,1.266,2.92v11.852c0,1.079-0.436,2.113-1.209,2.866l-6.747,6.569
	l6.775,6.729c0.756,0.751,1.181,1.772,1.181,2.838v11.915c0,1.055-0.414,2.042-1.117,2.772
	C55.812,79.717,54.715,80.269,53.489,80.269z M43.202,72.269h0.582l-5.816-5.792l-0.296,0.3L43.202,72.269z M19.652,72.269h0.436
	l29.575-28.798v-0.637L19.652,72.269z M13.669,65.85v0.7l30.01-29.437h-0.5L13.669,65.85z M43.923,60.68l5.74,5.74v-0.594
	l-5.455-5.419L43.923,60.68z M13.669,34.321v19.953l0.374-0.364V34.698L13.669,34.321z M22.3,34.707v11.117l0.439-0.425v-11.13
	L22.3,34.707z M15.401,24.235l2.835,2.835l2.835-2.835l-2.835-2.813L15.401,24.235z M57.657,67.511V39.876l8.567,8.502v27.697
	L57.657,67.511z M66.353,48.057l-8.631-8.631l8.631-8.567l8.696,8.632L66.353,48.057z M75.178,67.511l-8.632,8.565V48.379
	l8.632-8.502V67.511z M66.226,80.076c-1.041,0-2.064-0.406-2.829-1.171l-8.567-8.565c-0.75-0.751-1.172-1.769-1.172-2.829V39.876
	c0-0.268,0.027-0.532,0.078-0.788c0.08-0.942,0.492-1.83,1.168-2.501l8.631-8.567c1.56-1.548,4.076-1.548,5.636,0l8.696,8.632
	c0.496,0.492,0.849,1.1,1.034,1.76c0.18,0.458,0.277,0.953,0.277,1.464v27.634c0,1.066-0.426,2.088-1.183,2.839l-8.632,8.565
	c-0.803,0.798-1.891,1.196-2.978,1.158C66.332,80.075,66.279,80.076,66.226,80.076z M70.546,50.054v16.418l0.632-0.627V49.431
	L70.546,50.054z M61.657,65.854l0.567,0.567V50.045l-0.567-0.563V65.854z M63.389,39.437l2.985,2.985l2.986-2.941l-3.007-2.985
	L63.389,39.437z M87.737,41.358l-8.502,8.503V23.903l8.502-8.567V41.358z M79.235,67.252V50.505l8.438,8.438L79.235,67.252z
	 M87.93,41.551h8.309l-8.373,8.503h-8.373L87.93,41.551z M87.93,58.75l-8.437-8.438h8.373l8.373,8.438H87.93z M79.493,67.446
	l8.437-8.439h8.309l-8.373,8.439H79.493z M79.493,67.703h8.373l8.373,8.503h-7.857L79.493,67.703z M96.433,41.294h-8.438V15.336
	l8.438,8.567V41.294z M96.626,58.686l-8.503-8.438l8.503-8.696l8.502,8.567L96.626,58.686z M96.626,76.206l-8.503-8.567l8.503-8.502
	l8.502,8.502L96.626,76.206z M96.626,80.206c-0.061,0-0.122-0.001-0.183-0.004c-0.064,0.003-0.138,0.005-0.194,0.004
	c-0.003,0-0.007,0-0.01,0h-7.857c-1.03,0-2.021-0.397-2.765-1.109l-8.889-8.503c-0.348-0.333-0.625-0.718-0.829-1.134
	c-0.425-0.642-0.665-1.405-0.665-2.208V50.505c0-0.108,0.004-0.215,0.013-0.322c-0.008-0.106-0.013-0.214-0.013-0.322V23.903
	c0-1.056,0.417-2.068,1.161-2.818l8.502-8.567c0.797-0.803,1.876-1.213,2.968-1.18c1.087-0.033,2.181,0.381,2.979,1.191l8.438,8.567
	c0.737,0.748,1.15,1.756,1.15,2.807v15.805l7.536,7.593c1.548,1.56,1.547,4.076,0,5.636l-5.92,5.965l5.909,5.909
	c1.558,1.558,1.563,4.082,0.011,5.646l-8.502,8.567C98.715,79.78,97.693,80.206,96.626,80.206z M93.77,67.649l2.856,2.878
	l2.856-2.878l-2.856-2.856L93.77,67.649z M93.759,50.205l2.846,2.825l2.888-2.911l-2.846-2.868L93.759,50.205z M83.235,25.551
	v14.653l0.502-0.502V25.044L83.235,25.551z M91.995,37.294h0.438V25.542l-0.438-0.444V37.294z M106.481,41.423l8.502-8.502v25.83
	l-8.502,8.373V41.423z M140.942,59.007l-8.502,8.374h-25.701l8.374-8.374H140.942z M115.112,76.142l-8.374-8.374h25.701l8.502,8.374
	H115.112z M115.177,32.92l8.438,8.502v17.263h-8.438V32.92z M140.942,32.663l-8.502,8.567h-8.567l-8.502-8.567H140.942z
	 M123.938,45.739v-4.251h8.438v4.251H123.938z M132.44,50.247l8.502,8.438h-17.004v-8.438H132.44z M141.135,41.358l-8.438,8.374
	v-8.309l8.438-8.438V41.358z M149.766,50.055l-8.502,8.631l-8.566-8.631l8.566-8.503L149.766,50.055z M149.766,67.574l-8.502,8.502
	l-8.566-8.502l8.566-8.567L149.766,67.574z M149.831,41.423v8.309l-8.373-8.374v-8.373L149.831,41.423z M140.962,80.142
	c-0.007,0-0.013,0-0.02,0h-25.83c-1.061,0-2.078-0.422-2.829-1.172l-8.374-8.374c-0.477-0.477-0.814-1.054-1.001-1.673
	c-0.276-0.547-0.428-1.161-0.428-1.8v-25.7c0-1.061,0.421-2.078,1.171-2.829l8.502-8.502c0.246-0.245,0.518-0.454,0.808-0.624
	c0.68-0.512,1.52-0.805,2.407-0.805h25.571c0.872,0,1.698,0.283,2.371,0.778c0.357,0.187,0.69,0.43,0.984,0.727l8.373,8.438
	c0.744,0.749,1.161,1.762,1.161,2.817v8.309c0,0.322-0.039,0.638-0.112,0.942c-0.125,0.799-0.492,1.568-1.103,2.188l-5.886,5.974
	l5.875,5.921c1.552,1.563,1.547,4.088-0.011,5.646l-8.502,8.502c-0.601,0.602-1.346,0.972-2.124,1.109
	C141.646,80.098,141.31,80.142,140.962,80.142z M116.769,72.142h14.412l-0.38-0.374h-14.406L116.769,72.142z M138.365,67.563
	l2.888,2.866l2.867-2.866l-2.867-2.889L138.365,67.563z M116.395,63.381h14.406l0.38-0.374h-14.412L116.395,63.381z M110.481,43.08
	V57.57l0.502-0.495V42.577L110.481,43.08z M127.938,54.686h3.296l-0.441-0.438h-2.854V54.686z M119.177,54.686h0.438V43.071
	l-0.438-0.441V54.686z M138.354,50.076l2.899,2.921l2.877-2.921l-2.877-2.878L138.354,50.076z M125.539,37.23h5.235l0.563-0.567
	h-6.361L125.539,37.23z M153.118,41.81l8.436,8.567v26.022l-8.436,8.439V41.81z M161.619,93.597l-8.373-8.438l8.373-8.502
	l8.697,8.502L161.619,93.597z M161.813,32.985h25.764l-8.438,8.309h-25.83L161.813,32.985z M153.31,41.681h25.83l8.438,8.501
	h-25.764L153.31,41.681z M161.877,50.441h8.438v34.397l-8.438-8.439V50.441z M170.573,59.071h17.263l8.437,8.503h-25.699V59.071z
	 M170.573,67.896h25.699l-8.437,8.31h-17.263V67.896z M187.9,32.985l8.438,8.502L187.9,49.99l-8.567-8.503L187.9,32.985z
	 M179.333,50.441h8.374v8.374h-8.374V50.441z M196.531,41.81v25.571l-8.438-8.502v-8.502L196.531,41.81z M161.619,97.597
	c-1.029,0-2.058-0.395-2.839-1.183l-8.373-8.438c-0.437-0.44-0.751-0.958-0.941-1.508c-0.225-0.504-0.348-1.057-0.348-1.631V41.81
	c0-0.581,0.126-1.142,0.356-1.65c0.19-0.642,0.541-1.239,1.041-1.727l8.503-8.309c0.747-0.73,1.75-1.139,2.795-1.139h25.764
	c0.054,0,0.108,0.001,0.162,0.003c0.059-0.003,0.107-0.003,0.177-0.003c1.061,0.004,2.076,0.429,2.823,1.183l8.438,8.502
	c0.281,0.283,0.511,0.597,0.69,0.932c0.424,0.642,0.664,1.405,0.664,2.208v25.571c0,0.736-0.202,1.44-0.563,2.047
	c-0.201,0.485-0.499,0.936-0.889,1.318l-8.437,8.31c-0.748,0.737-1.756,1.15-2.807,1.15h-13.521v4.632
	c0,0.054-0.001,0.107-0.003,0.161c0.002,0.056,0.003,0.111,0.003,0.168c-0.002,1.079-0.44,2.111-1.215,2.863l-8.697,8.438
	C163.627,97.221,162.623,97.597,161.619,97.597z M158.87,85.148l2.802,2.823l2.91-2.823l-2.91-2.845L158.87,85.148z M165.877,74.742
	l0.438,0.438V54.441h-0.438V74.742z M157.118,51.572v23.606l0.436-0.437V52.015L157.118,51.572z M174.573,72.206h11.624l0.313-0.31
	h-11.938V72.206z M174.573,63.574h12.096l-0.499-0.503h-11.597V63.574z M192.093,57.23l0.438,0.442V51.57l-0.438,0.445V57.23z
	 M174.315,55.071h1.018v-0.889h-1.018V55.071z M183.333,54.814h0.374v-0.373h-0.374V54.814z M163.47,46.182h14.502l-0.498-0.501
	h-14.506L163.47,46.182z M185.012,41.487l2.867,2.846l2.824-2.846l-2.824-2.846L185.012,41.487z M163.126,37.294h14.375l0.313-0.309
	h-14.372L163.126,37.294z M200.459,67.511V39.876l8.568,8.502v27.697L200.459,67.511z M209.155,48.057l-8.632-8.631l8.632-8.567
	l8.696,8.632L209.155,48.057z M217.98,67.511l-8.632,8.565V48.379l8.632-8.502V67.511z M209.028,80.076
	c-1.041,0-2.063-0.406-2.829-1.171l-8.568-8.565c-0.75-0.75-1.172-1.768-1.172-2.829V39.876c0-0.27,0.027-0.535,0.079-0.792
	c0.081-0.941,0.492-1.827,1.168-2.497l8.632-8.567c1.561-1.548,4.077-1.547,5.636,0l8.696,8.632c0.496,0.493,0.85,1.103,1.035,1.765
	c0.179,0.457,0.275,0.95,0.275,1.46v27.634c0,1.066-0.426,2.088-1.183,2.839l-8.632,8.565c-0.803,0.798-1.895,1.196-2.978,1.158
	C209.135,80.075,209.081,80.076,209.028,80.076z M213.349,50.054v16.418l0.632-0.627V49.431L213.349,50.054z M204.459,65.854
	l0.568,0.568V50.045l-0.568-0.564V65.854z M206.191,39.437l2.985,2.985l2.986-2.942l-3.008-2.985L206.191,39.437z M230.541,41.358
	l-8.504,8.503V23.903l8.504-8.567V41.358z M222.037,67.252V50.505l8.439,8.438L222.037,67.252z M230.732,41.551h8.31l-8.373,8.503
	h-8.373L230.732,41.551z M230.732,58.75l-8.437-8.438h8.373l8.373,8.438H230.732z M222.296,67.446l8.437-8.439h8.31l-8.373,8.439
	H222.296z M222.296,67.703h8.373l8.373,8.503h-7.856L222.296,67.703z M239.236,41.294h-8.438V15.336l8.438,8.567V41.294z
	 M239.429,58.686l-8.502-8.438l8.502-8.696l8.504,8.567L239.429,58.686z M239.429,76.206l-8.502-8.567l8.502-8.502l8.504,8.502
	L239.429,76.206z M239.429,80.206L239.429,80.206c-0.062,0-0.122-0.001-0.183-0.004c-0.063,0.003-0.107,0.005-0.194,0.004
	c-0.003,0-0.007,0-0.01,0h-7.856c-1.03,0-2.021-0.397-2.765-1.109l-8.89-8.503c-0.347-0.332-0.624-0.716-0.828-1.131
	c-0.426-0.643-0.666-1.407-0.666-2.211V50.505c0-0.108,0.004-0.215,0.013-0.322c-0.009-0.107-0.013-0.214-0.013-0.322V23.903
	c0-1.056,0.417-2.069,1.161-2.818l8.504-8.567c0.796-0.803,1.846-1.229,2.968-1.18c1.087-0.036,2.18,0.382,2.978,1.191l8.438,8.567
	c0.737,0.749,1.15,1.757,1.15,2.807v15.807l7.535,7.591c1.548,1.56,1.548,4.076,0,5.636l-5.921,5.965l5.91,5.908
	c1.559,1.559,1.563,4.083,0.011,5.647l-8.504,8.567C241.517,79.78,240.495,80.206,239.429,80.206z M236.573,67.649l2.855,2.878
	l2.857-2.878l-2.857-2.856L236.573,67.649z M236.563,50.205l2.845,2.825l2.89-2.911l-2.847-2.868L236.563,50.205z M226.037,25.551
	v14.653l0.504-0.504V25.043L226.037,25.551z M234.798,37.294h0.438V25.542l-0.438-0.445V37.294z M249.284,41.423l8.502-8.502v25.83
	l-8.502,8.373V41.423z M283.745,59.007l-8.502,8.374h-25.701l8.374-8.374H283.745z M257.916,76.142l-8.374-8.374h25.701l8.502,8.374
	H257.916z M257.98,32.92l8.438,8.502v17.263h-8.438V32.92z M283.745,32.663l-8.502,8.567h-8.567l-8.502-8.567H283.745z
	 M266.74,45.739v-4.251h8.438v4.251H266.74z M275.243,50.247l8.502,8.438H266.74v-8.438H275.243z M283.938,41.358l-8.438,8.374
	v-8.309l8.438-8.438V41.358z M292.569,50.055l-8.502,8.631l-8.567-8.631l8.567-8.503L292.569,50.055z M292.569,67.574l-8.502,8.502
	l-8.567-8.502l8.567-8.567L292.569,67.574z M292.634,41.423v8.309l-8.374-8.374v-8.373L292.634,41.423z M283.765,80.142
	c-0.005,0.001-0.012,0.001-0.02,0h-25.829c-1.061,0-2.078-0.422-2.828-1.172l-8.374-8.374c-0.477-0.476-0.813-1.052-1.001-1.67
	c-0.276-0.549-0.429-1.163-0.429-1.803v-25.7c0-1.061,0.422-2.078,1.172-2.828l8.502-8.502c0.246-0.247,0.52-0.456,0.812-0.627
	c0.68-0.51,1.518-0.803,2.404-0.803h25.571c0.873,0,1.7,0.284,2.373,0.78c0.356,0.187,0.688,0.43,0.98,0.725l8.374,8.438
	c0.744,0.75,1.161,1.762,1.161,2.818v8.309c0,0.322-0.039,0.638-0.112,0.942c-0.125,0.799-0.492,1.568-1.103,2.188l-5.886,5.974
	l5.875,5.921c1.553,1.563,1.548,4.088-0.011,5.646l-8.502,8.502c-0.602,0.602-1.347,0.972-2.125,1.11
	C284.449,80.098,284.112,80.142,283.765,80.142z M259.573,72.142h14.41l-0.379-0.374h-14.405L259.573,72.142z M281.168,67.563
	l2.889,2.866l2.866-2.866l-2.866-2.889L281.168,67.563z M259.199,63.381h14.405l0.379-0.374h-14.41L259.199,63.381z M253.284,43.08
	v14.49l0.502-0.494V42.578L253.284,43.08z M270.74,54.686h3.297l-0.442-0.438h-2.854V54.686z M261.98,54.686h0.438V43.071
	l-0.438-0.441V54.686z M281.157,50.076l2.899,2.921l2.877-2.921l-2.877-2.878L281.157,50.076z M268.342,37.23h5.235l0.563-0.567
	h-6.362L268.342,37.23z M295.855,67.896V41.551l8.501,8.567v26.28L295.855,67.896z M320.912,32.598l-8.503,8.374h-16.36l8.567-8.374
	H320.912z M304.616,49.861l-8.567-8.503h16.36l8.503,8.503h-7.536H304.616z M304.681,76.398V50.182h8.566v17.714L304.681,76.398z
	 M312.731,41.23l8.567-8.567l8.631,8.567l-8.631,8.566L312.731,41.23z M304.357,80.398c-1.041,0-2.064-0.406-2.829-1.172
	l-8.501-8.502c-0.751-0.75-1.172-1.768-1.172-2.828V41.551c0-0.544,0.11-1.07,0.313-1.553c0.176-0.702,0.543-1.359,1.084-1.887
	l8.567-8.374c0.747-0.73,1.751-1.14,2.796-1.14h16.296c0.292,0,0.578,0.032,0.855,0.092c0.857,0.101,1.688,0.479,2.35,1.134
	l8.631,8.567c0.756,0.751,1.182,1.773,1.182,2.839s-0.426,2.088-1.183,2.839l-8.631,8.566c-0.647,0.644-1.461,1.019-2.302,1.128
	c-0.284,0.063-0.579,0.098-0.883,0.098c-0.005,0-0.012,0-0.02,0h-3.665v14.035c0,1.066-0.426,2.088-1.183,2.839l-8.566,8.502
	c-0.804,0.798-1.89,1.196-2.979,1.158C304.465,80.397,304.411,80.398,304.357,80.398z M308.681,54.182v12.611l0.566-0.563V54.182
	H308.681z M299.855,66.24l0.501,0.501V51.767l-0.501-0.505V66.24z M306.265,45.861h4.99l-0.503-0.503h-4.994L306.265,45.861z
	 M318.389,41.23l2.921,2.92l2.942-2.92l-2.942-2.921L318.389,41.23z M305.863,36.972h4.907l0.38-0.374h-4.904L305.863,36.972z"/>
<path fill="#00ADEE" d="M17.773,33.573v22.544l-8.374,8.18V25.135L17.773,33.573z M41.284,33.637H53.2L9.399,76.6V64.684
	L41.284,33.637z M26.469,24.749l-8.503,8.502l-8.501-8.502l8.501-8.439L26.469,24.749z M9.592,76.794l43.801-42.963v11.852
	L21.444,76.794H9.592z M26.469,47.615l-8.438,8.181V33.573l8.438-8.438V47.615z M31.75,67.325l5.926-5.991L53.2,76.794H41.284
	L31.75,67.325z M53.393,76.6L37.934,61.142l6.055-5.796l9.404,9.338V76.6z M57.387,68.034V40.4l8.567,8.502V76.6L57.387,68.034z
	 M66.083,48.581l-8.631-8.631l8.631-8.567l8.696,8.632L66.083,48.581z M74.908,68.034L66.276,76.6V48.903l8.632-8.502V68.034z
	 M87.468,41.882l-8.502,8.502V24.426l8.502-8.566V41.882z M78.965,67.776V51.029l8.438,8.438L78.965,67.776z M87.661,42.075h8.309
	l-8.373,8.503h-8.374L87.661,42.075z M87.661,59.273l-8.438-8.438h8.374l8.373,8.438H87.661z M79.223,67.969l8.438-8.438h8.309
	l-8.373,8.438H79.223z M79.223,68.228h8.374l8.373,8.502h-7.858L79.223,68.228z M96.164,41.818h-8.439V15.859l8.439,8.566V41.818z
	 M96.357,59.209l-8.503-8.438l8.503-8.695l8.501,8.568L96.357,59.209z M96.357,76.729l-8.503-8.567l8.503-8.502l8.501,8.502
	L96.357,76.729z M106.212,41.946l8.502-8.502v25.829l-8.502,8.374V41.946z M140.672,59.531l-8.502,8.373h-25.701l8.374-8.373
	H140.672z M114.843,76.664l-8.374-8.372h25.701l8.502,8.372H114.843z M114.907,33.444l8.438,8.502v17.263h-8.438V33.444z
	 M140.672,33.186l-8.502,8.567h-8.567l-8.502-8.567H140.672z M123.667,46.262v-4.251h8.438v4.251H123.667z M132.17,50.771
	l8.502,8.438h-17.005v-8.438H132.17z M140.866,41.882l-8.438,8.374v-8.31l8.438-8.437V41.882z M149.497,50.579l-8.502,8.63
	l-8.567-8.63l8.567-8.503L149.497,50.579z M149.497,68.099l-8.502,8.501l-8.567-8.501l8.567-8.567L149.497,68.099z M149.562,41.946
	v8.31l-8.374-8.374v-8.373L149.562,41.946z"/>
<path fill="#58595B" d="M152.847,42.333l8.438,8.566v26.023l-8.438,8.438V42.333z M161.349,94.121l-8.373-8.439l8.373-8.502
	l8.697,8.502L161.349,94.121z M161.543,33.509h25.764l-8.437,8.309H153.04L161.543,33.509z M153.04,42.205h25.831l8.437,8.502
	h-25.764L153.04,42.205z M161.607,50.964h8.439v34.397l-8.439-8.438V50.964z M170.303,59.596h17.264l8.438,8.503h-25.701V59.596z
	 M170.303,68.42h25.701l-8.438,8.31h-17.264V68.42z M187.631,33.509l8.438,8.501l-8.438,8.503l-8.568-8.503L187.631,33.509z
	 M179.063,50.964h8.374v8.374h-8.374V50.964z M196.262,42.333v25.571l-8.439-8.501v-8.504L196.262,42.333z M200.189,68.034V40.4
	l8.567,8.502V76.6L200.189,68.034z M208.886,48.581l-8.631-8.631l8.631-8.567l8.696,8.632L208.886,48.581z M217.711,68.034
	l-8.632,8.565V48.903l8.632-8.502V68.034z M230.271,41.882l-8.503,8.502V24.426l8.503-8.566V41.882z M221.768,67.776V51.029
	l8.439,8.438L221.768,67.776z M230.464,42.075h8.31l-8.374,8.503h-8.373L230.464,42.075z M230.464,59.273l-8.438-8.438h8.373
	l8.374,8.438H230.464z M222.026,67.969l8.438-8.438h8.31l-8.374,8.438H222.026z M222.026,68.228h8.373l8.374,8.502h-7.858
	L222.026,68.228z M238.967,41.818h-8.438V15.859l8.438,8.566V41.818z M239.16,59.209l-8.503-8.438l8.503-8.695l8.503,8.568
	L239.16,59.209z M239.16,76.729l-8.503-8.567l8.503-8.502l8.503,8.502L239.16,76.729z M249.015,41.946l8.502-8.502v25.829
	l-8.502,8.374V41.946z M283.475,59.531l-8.501,8.373h-25.701l8.373-8.373H283.475z M257.646,76.664l-8.373-8.372h25.701l8.501,8.372
	H257.646z M257.71,33.444l8.438,8.502v17.263h-8.438V33.444z M283.475,33.186l-8.501,8.567h-8.568l-8.501-8.567H283.475z
	 M266.471,46.262v-4.251h8.438v4.251H266.471z M274.974,50.771l8.501,8.438h-17.004v-8.438H274.974z M283.669,41.882l-8.439,8.374
	v-8.31l8.439-8.437V41.882z M292.3,50.579l-8.502,8.63l-8.568-8.63l8.568-8.503L292.3,50.579z M292.3,68.099l-8.502,8.501
	l-8.568-8.501l8.568-8.567L292.3,68.099z M292.364,41.946v8.31l-8.374-8.374v-8.373L292.364,41.946z M295.586,68.42V42.075
	l8.502,8.568v26.28L295.586,68.42z M320.642,33.122l-8.502,8.373h-16.36l8.567-8.373H320.642z M304.347,50.384l-8.567-8.502h16.36
	l8.502,8.502h-7.535H304.347z M304.41,76.923V50.707h8.567V68.42L304.41,76.923z M312.462,41.753l8.566-8.567l8.632,8.567
	l-8.632,8.566L312.462,41.753z"/>
</svg>
