<?xml version="1.0" encoding="utf-8"?>
<!-- Generator: Adobe Illustrator 16.0.0, SVG Export Plug-In . SVG Version: 6.00 Build 0)  -->
<!DOCTYPE svg PUBLIC "-//W3C//DTD SVG 1.1//EN" "http://www.w3.org/Graphics/SVG/1.1/DTD/svg11.dtd">
<svg version="1.1"
	 id="svg2" xmlns:cc="http://creativecommons.org/ns#" xmlns:dc="http://purl.org/dc/elements/1.1/" xmlns:inkscape="http://www.inkscape.org/namespaces/inkscape" xmlns:rdf="http://www.w3.org/1999/02/22-rdf-syntax-ns#" xmlns:sodipodi="http://sodipodi.sourceforge.net/DTD/sodipodi-0.dtd" xmlns:svg="http://www.w3.org/2000/svg"
	 xmlns="http://www.w3.org/2000/svg" xmlns:xlink="http://www.w3.org/1999/xlink" x="0px" y="0px" width="500px" height="500px"
	 viewBox="0 0 500 500" enable-background="new 0 0 500 500" xml:space="preserve">
<path fill="#231F20" d="M197.195,391.819c49.155,0,95.525-17.986,131.574-50.841l157.48,157.007
	c1.584,1.571,3.628,2.363,5.697,2.363s4.139-0.792,5.697-2.363c3.143-3.129,3.143-8.227,0-11.356L340.062,329.531
	c71.152-76.262,69.695-195.892-4.753-270.123C298.417,22.631,249.365,2.372,197.195,2.372c-52.145,0-101.198,20.26-138.115,57.037
	c-76.134,75.93-76.134,199.457,0,275.387C95.997,371.56,145.05,391.819,197.195,391.819z M70.474,70.765
	c33.877-33.737,78.868-52.324,126.721-52.324c47.852,0,92.868,18.587,126.72,52.324c69.85,69.658,69.85,182.991,0,252.661
	c-33.852,33.75-78.868,52.323-126.72,52.323c-47.853,0-92.843-18.573-126.721-52.323C0.625,253.756,0.625,140.422,70.474,70.765z"/>
</svg>
